<?xml version="1.0" encoding="utf-8"?>
<!-- Generator: Adobe Illustrator 24.1.0, SVG Export Plug-In . SVG Version: 6.00 Build 0)  -->
<svg version="1.1" id="Layer_1" xmlns="http://www.w3.org/2000/svg" xmlns:xlink="http://www.w3.org/1999/xlink" x="0px" y="0px"
	 viewBox="0 0 203.52 147.6" style="enable-background:new 0 0 203.52 147.6;" xml:space="preserve">
<style type="text/css">
	.st0{fill:#009FE3;}
	.st1{fill:#FFFFFF;}
	.st2{fill:#E71D73;}
	.st3{fill:#FFED00;}
	.st4{fill:#E30613;}
	.st5{fill:#E94E1B;}
	.st6{fill:#DADADA;}
	.st7{fill:#95C11F;}
	.st8{fill:none;}
</style>
<g id="bQG94W.tif">
	<g>
		<path class="st0" d="M-2175.43,242.6c-1.47,0-2.91,0-4.39,0c0-10.25,0-20.5,0-30.78c0.08,0,0.17,0,0.26,0
			c1.8,0,3.61,0.01,5.41-0.01c0.23,0,0.33,0.09,0.43,0.28c4,7.59,8,15.18,12.01,22.76c0.06,0.11,0.07,0.29,0.29,0.21
			c0-7.73,0-15.47,0-23.23c1.47,0,2.92,0,4.38,0c0,10.26,0,20.5,0,30.78c-0.09,0-0.16,0-0.24,0c-1.58,0-3.16,0-4.74,0.01
			c-0.19,0-0.28-0.07-0.36-0.23c-4.26-8.07-8.53-16.14-12.8-24.2c-0.05-0.09-0.13-0.16-0.19-0.24c-0.02,0.01-0.04,0.03-0.06,0.04
			C-2175.43,226.18-2175.43,234.38-2175.43,242.6z"/>
		<path class="st0" d="M-2144.53,229.72c0,4.26,0,8.49,0,12.73c-1.47,0-2.92,0-4.39,0c0-10.2,0-20.4,0-30.62
			c0.06-0.01,0.12-0.02,0.18-0.02c4.99,0,9.98-0.02,14.97,0.01c2.42,0.02,4.42,1.04,6.03,2.83c1.27,1.41,2.05,3.06,2.25,4.94
			c0.28,2.64-0.4,5.04-2.08,7.11c-1.44,1.76-3.32,2.74-5.59,2.97c-0.36,0.04-0.73,0.04-1.09,0.04c-3.31,0-6.63,0-9.94,0
			C-2144.3,229.72-2144.4,229.72-2144.53,229.72z M-2144.52,225.59c0.11,0,0.19,0,0.26,0c3.26,0,6.53,0,9.79,0
			c1.21,0,2.32-0.31,3.22-1.14c1.36-1.25,1.75-2.85,1.45-4.6c-0.4-2.34-2.32-3.92-4.69-3.9c-3.26,0.03-6.51,0.01-9.77,0.01
			c-0.08,0-0.17,0.01-0.26,0.01C-2144.52,219.18-2144.52,222.37-2144.52,225.59z"/>
	</g>
</g>
<rect x="-1576.73" y="225.23" class="st1" width="258.48" height="173.38"/>
<rect x="-1576.73" y="-17.52" class="st2" width="258.48" height="173.38"/>
<g id="bQG94W.tif_3_">
	<g>
		<path class="st1" d="M-1514.12,114.67c-4.29,0-8.51,0-12.84,0c0-30.01,0-59.99,0-90.08c0.23,0,0.5,0,0.77,0
			c5.28,0,10.55,0.02,15.83-0.02c0.68,0,0.97,0.27,1.25,0.81c11.7,22.21,23.42,44.41,35.13,66.61c0.16,0.31,0.21,0.83,0.86,0.61
			c0-22.63,0-45.28,0-67.97c4.3,0,8.54,0,12.83,0c0,30.01,0,60,0,90.06c-0.25,0-0.48,0-0.7,0c-4.63,0-9.25-0.01-13.88,0.02
			c-0.57,0-0.81-0.21-1.05-0.66c-12.47-23.61-24.95-47.22-37.44-70.82c-0.14-0.26-0.38-0.47-0.57-0.7
			c-0.06,0.04-0.13,0.08-0.19,0.11C-1514.12,66.63-1514.12,90.62-1514.12,114.67z"/>
		<path class="st1" d="M-1423.7,76.98c0,12.47,0,24.84,0,37.26c-4.31,0-8.55,0-12.84,0c0-29.85,0-59.7,0-89.6
			c0.16-0.02,0.34-0.05,0.52-0.05c14.6,0,29.2-0.07,43.8,0.04c7.07,0.05,12.93,3.05,17.63,8.27c3.71,4.12,5.99,8.96,6.58,14.47
			c0.83,7.74-1.16,14.75-6.1,20.81c-4.21,5.16-9.72,8-16.35,8.68c-1.06,0.11-2.14,0.12-3.2,0.12c-9.69,0.01-19.39,0-29.08,0
			C-1423.04,76.98-1423.33,76.98-1423.7,76.98z M-1423.68,64.89c0.31,0,0.54,0,0.77,0c9.55,0,19.11,0.01,28.66,0
			c3.53,0,6.78-0.9,9.43-3.33c3.99-3.65,5.11-8.33,4.23-13.47c-1.17-6.85-6.78-11.47-13.73-11.41c-9.53,0.08-19.06,0.02-28.59,0.02
			c-0.25,0-0.49,0.02-0.77,0.04C-1423.68,46.13-1423.68,55.46-1423.68,64.89z"/>
	</g>
</g>
<text transform="matrix(1 0 0 1 -1512.4104 293.0647)"><tspan x="0" y="0" class="st2" style="font-family:'Helvetica'; font-size:12px;">Niamh Phillips Ceramics</tspan><tspan x="14.32" y="28.8" class="st2" style="font-family:'Helvetica'; font-size:12px;">niamhphillips.co.uk</tspan><tspan x="0.91" y="43.2" class="st2" style="font-family:'Helvetica'; font-size:12px;">npceramics@gmail.com</tspan></text>
<rect x="-2088.51" y="225.23" class="st3" width="258.48" height="173.38"/>
<rect x="-2088.51" y="-17.52" class="st4" width="258.48" height="173.38"/>
<g id="bQG94W.tif_2_">
	<g>
		<path class="st3" d="M-2044.09,126.95c-5.46,0-10.83,0-16.35,0c0-38.19,0-76.35,0-114.64c0.29,0,0.63,0,0.97,0
			c6.72,0,13.43,0.02,20.15-0.03c0.87-0.01,1.23,0.34,1.59,1.03c14.89,28.26,29.8,56.52,44.71,84.77c0.21,0.4,0.27,1.06,1.1,0.78
			c0-28.8,0-57.62,0-86.5c5.47,0,10.87,0,16.32,0c0,38.19,0,76.36,0,114.61c-0.32,0-0.61,0-0.89,0c-5.89,0-11.78-0.02-17.66,0.02
			c-0.72,0-1.03-0.27-1.33-0.84c-15.87-30.05-31.76-60.09-47.65-90.13c-0.18-0.33-0.48-0.6-0.72-0.89c-0.08,0.05-0.16,0.1-0.24,0.15
			C-2044.09,65.81-2044.09,96.34-2044.09,126.95z"/>
		<path class="st0" d="M-1929.01,78.98c0,15.86,0,31.61,0,47.42c-5.48,0-10.88,0-16.34,0c0-37.99,0-75.97,0-114.02
			c0.21-0.02,0.43-0.07,0.66-0.07c18.58,0,37.16-0.09,55.74,0.05c9,0.07,16.45,3.88,22.44,10.52c4.72,5.24,7.62,11.4,8.37,18.41
			c1.05,9.85-1.48,18.77-7.76,26.48c-5.35,6.57-12.38,10.19-20.8,11.05c-1.35,0.14-2.72,0.15-4.08,0.15
			c-12.34,0.01-24.67,0.01-37.01,0.01C-1928.18,78.98-1928.55,78.98-1929.01,78.98z M-1928.99,63.59c0.4,0,0.69,0,0.98,0
			c12.16,0,24.31,0.01,36.47,0c4.49,0,8.63-1.14,12-4.23c5.08-4.65,6.5-10.6,5.38-17.14c-1.49-8.72-8.63-14.6-17.47-14.53
			c-12.13,0.1-24.26,0.03-36.38,0.03c-0.31,0-0.63,0.03-0.98,0.05C-1928.99,39.72-1928.99,51.59-1928.99,63.59z"/>
	</g>
</g>
<text transform="matrix(1 0 0 1 -2019.5037 307.615)"><tspan x="0" y="0" class="st4" style="font-family:'Times-Roman'; font-size:12px;">Niamh Phillips Ceramics</tspan><tspan x="1.99" y="14.4" class="st0" style="font-family:'Times-Roman'; font-size:12px;">npceramics@gmail.com</tspan><tspan x="-1.83" y="72" class="st0" style="font-family:'Times-Roman'; font-size:12px;">www.niamhphillips.co.uk</tspan></text>
<rect x="-1029.94" y="225.71" class="st5" width="258.48" height="173.38"/>
<rect x="-1030.03" y="-17.52" class="st6" width="258.48" height="173.38"/>
<rect x="707.92" y="-17.05" width="258.48" height="173.38"/>
<text transform="matrix(1 0 0 1 -965.7128 293.0647)"><tspan x="0" y="0" class="st1" style="font-family:'Helvetica'; font-size:12px;">Niamh Phillips Ceramics</tspan><tspan x="14.32" y="28.8" class="st1" style="font-family:'Helvetica'; font-size:12px;">niamhphillips.co.uk</tspan><tspan x="0.91" y="43.2" class="st1" style="font-family:'Helvetica'; font-size:12px;">npceramics@gmail.com</tspan></text>
<path class="st7" d="M-1116.17,73.79c5.04-0.79,110.92,21.24,121-21.24s6.48-59.8,59.06-40.92s44.1,64.15,60.94,67.48
	c16.84,3.33,52.85-1.39,65.82-41.52s-2.91-28.51-5.52-37.6c-4.86-16.98,44.41-25.35,63.13-17.48
	c18.73,7.87,12.24,110.16,12.24,110.16s-11.52,73.18-18.73,71.6s-349.31,8.66-349.31,8.66L-1116.17,73.79z"/>
<path class="st5" d="M-652.14,129.03c0,0-105.99,28.6-120.61,6.65s-14.5-24.64-24.12-50.55c-11.45-30.82-29.24-0.67-67.64,18.92
	c-12.98,6.62-15.69,42.94-34.69,16.33c-47.51-66.51-111.84-33.92-127.19-3.33c-15.07,30.04-5.85,51.21-5.85,51.21
	c-3-0.12,391.15,15.41,389.6,13.3C-644.1,179.58-652.14,129.03-652.14,129.03z"/>
<g id="bQG94W.tif_4_">
	<g>
		<path class="st1" d="M-948.25,101.74c-3.06,0-6.07,0-9.15,0c0-21.39,0-42.76,0-64.2c0.16,0,0.35,0,0.55,0
			c3.76,0,7.52,0.01,11.28-0.01c0.49,0,0.69,0.19,0.89,0.57c8.34,15.83,16.69,31.65,25.04,47.47c0.12,0.22,0.15,0.59,0.62,0.44
			c0-16.13,0-32.27,0-48.44c3.07,0,6.09,0,9.14,0c0,21.39,0,42.76,0,64.19c-0.18,0-0.34,0-0.5,0c-3.3,0-6.59-0.01-9.89,0.01
			c-0.4,0-0.58-0.15-0.75-0.47c-8.89-16.83-17.79-33.65-26.69-50.48c-0.1-0.19-0.27-0.33-0.4-0.5c-0.04,0.03-0.09,0.05-0.13,0.08
			C-948.25,67.5-948.25,84.59-948.25,101.74z"/>
		<path class="st1" d="M-883.81,74.87c0,8.88,0,17.7,0,26.56c-3.07,0-6.09,0-9.15,0c0-21.27,0-42.55,0-63.86
			c0.12-0.01,0.24-0.04,0.37-0.04c10.4,0,20.81-0.05,31.21,0.03c5.04,0.04,9.21,2.17,12.57,5.89c2.64,2.93,4.27,6.39,4.69,10.31
			c0.59,5.52-0.83,10.51-4.35,14.83c-3,3.68-6.93,5.71-11.65,6.19c-0.76,0.08-1.52,0.08-2.28,0.08c-6.91,0.01-13.82,0-20.73,0
			C-883.34,74.87-883.55,74.87-883.81,74.87z M-883.79,66.25c0.22,0,0.39,0,0.55,0c6.81,0,13.62,0,20.43,0
			c2.51,0,4.83-0.64,6.72-2.37c2.84-2.6,3.64-5.94,3.01-9.6c-0.83-4.88-4.84-8.18-9.78-8.13c-6.79,0.06-13.58,0.01-20.38,0.02
			c-0.18,0-0.35,0.02-0.55,0.03C-883.79,52.89-883.79,59.53-883.79,66.25z"/>
	</g>
</g>
<text transform="matrix(1 0 0 1 786.8891 314.4122)" style="font-family:'Times-Roman'; font-size:10px;">Niamh Phillips Ceramics</text>
<g id="ZxzVoR.tif">
	<g>
		<path class="st1" d="M822.75,23.65c2.75,0,5.38,0,8.06,0c0,31.39,0,62.76,0,94.22c-0.22,0-0.44,0-0.66,0
			c-2.87,0-5.75-0.01-8.62,0.01c-0.5,0.01-0.72-0.17-0.94-0.6C806.47,90.14,792.35,63,778.22,35.86c-0.14-0.27-0.29-0.53-0.43-0.79
			c-0.05,0.02-0.1,0.03-0.15,0.05c0,27.56,0,55.12,0,82.72c-2.67,0-5.32,0-8.07,0c0-31.38,0-62.75,0-94.2c0.18,0,0.4,0,0.63,0
			c3.27,0,6.54,0.01,9.81-0.01c0.49,0,0.73,0.16,0.96,0.59c13.72,26.41,27.45,52.8,41.19,79.2c0.14,0.26,0.3,0.51,0.45,0.76
			c0.05-0.02,0.1-0.04,0.15-0.06C822.75,77.31,822.75,50.52,822.75,23.65z"/>
		<path class="st1" d="M862.39,73.45c0,14.84,0,29.59,0,44.38c-2.7,0-5.35,0-8.04,0c0-31.39,0-62.76,0-94.2c0.29,0,0.56,0,0.82,0
			c14.07,0,28.14,0.03,42.21-0.01c7.63-0.02,13.66,3.16,18.44,8.92c2.99,3.61,4.86,7.77,5.54,12.4c1.45,9.9-2.87,20.74-12.66,25.89
			c-3.44,1.81-7.13,2.62-11.01,2.62c-11.47,0-22.94,0-34.41,0C863.02,73.45,862.75,73.45,862.39,73.45z M862.42,65.32
			c0.23,0.01,0.39,0.03,0.56,0.03c11.64,0,23.28,0.03,34.91-0.01c5.89-0.02,10.4-2.61,13.37-7.7c3.52-6.03,2.98-14.06-1.28-19.6
			c-3.22-4.2-7.4-6.4-12.8-6.37c-11.32,0.08-22.65,0.02-33.97,0.02c-0.26,0-0.52,0-0.79,0C862.42,42.95,862.42,54.1,862.42,65.32z"
			/>
	</g>
</g>
<text transform="matrix(1 0 0 1 785.0353 253.7496)" style="font-family:'Times-Roman'; font-size:10px;">www.niamhphillips.co.uk</text>
<text transform="matrix(1 0 0 1 791.4074 377.4312)" style="font-family:'Times-Roman'; font-size:10px;">npceramics@gmail.com</text>
<rect x="268.3" y="225.71" class="st8" width="258.48" height="173.38"/>
<text transform="matrix(1 0 0 1 347.2698 314.4122)" class="st4" style="font-family:'Times-Roman'; font-size:10px;">Niamh Phillips Ceramics</text>
<g id="ZxzVoR.tif_1_">
	<g>
		<path class="st3" d="M383.13,23.65c2.75,0,5.38,0,8.06,0c0,31.39,0,62.76,0,94.22c-0.22,0-0.44,0-0.66,0
			c-2.87,0-5.75-0.01-8.62,0.01c-0.5,0.01-0.72-0.17-0.94-0.6C366.85,90.14,352.73,63,338.6,35.86c-0.14-0.27-0.29-0.53-0.43-0.79
			c-0.05,0.02-0.1,0.03-0.15,0.05c0,27.56,0,55.12,0,82.72c-2.67,0-5.32,0-8.07,0c0-31.38,0-62.75,0-94.2c0.18,0,0.4,0,0.63,0
			c3.27,0,6.54,0.01,9.81-0.01c0.49,0,0.73,0.16,0.96,0.59c13.72,26.41,27.45,52.8,41.19,79.2c0.14,0.26,0.3,0.51,0.45,0.76
			c0.05-0.02,0.1-0.04,0.15-0.06C383.13,77.31,383.13,50.52,383.13,23.65z"/>
		<path class="st3" d="M422.77,73.45c0,14.84,0,29.59,0,44.38c-2.7,0-5.35,0-8.04,0c0-31.39,0-62.76,0-94.2c0.29,0,0.56,0,0.82,0
			c14.07,0,28.14,0.03,42.21-0.01c7.63-0.02,13.66,3.16,18.44,8.92c2.99,3.61,4.86,7.77,5.54,12.4c1.45,9.9-2.87,20.74-12.66,25.89
			c-3.44,1.81-7.13,2.62-11.01,2.62c-11.47,0-22.94,0-34.41,0C423.4,73.45,423.13,73.45,422.77,73.45z M422.8,65.32
			c0.23,0.01,0.39,0.03,0.56,0.03c11.64,0,23.28,0.03,34.91-0.01c5.89-0.02,10.4-2.61,13.37-7.7c3.52-6.03,2.98-14.06-1.28-19.6
			c-3.22-4.2-7.4-6.4-12.8-6.37c-11.32,0.08-22.65,0.02-33.97,0.02c-0.26,0-0.52,0-0.79,0C422.8,42.95,422.8,54.1,422.8,65.32z"/>
	</g>
</g>
<text transform="matrix(1 0 0 1 345.4161 253.7496)" class="st0" style="font-family:'Times-Roman'; font-size:10px;">www.niamhphillips.co.uk</text>
<text transform="matrix(1 0 0 1 351.7881 377.4312)" class="st0" style="font-family:'Times-Roman'; font-size:10px;">npceramics@gmail.com</text>
<rect x="-338.25" y="225.71" class="st8" width="258.48" height="173.38"/>
<rect x="-338.35" y="-17.52" class="st3" width="258.48" height="173.38"/>
<text transform="matrix(1 0 0 1 -259.2851 314.4122)" class="st4" style="font-family:'Times-Roman'; font-size:10px;">Niamh Phillips Ceramics</text>
<g id="za7vtm.tif_1_">
	<g>
		<path class="st1" d="M-247.11,97.67c-4.88,0-9.73,0-14.64,0c0-17.07,0-34.12,0-51.2c0.1-0.01,0.21-0.02,0.32-0.02
			c6.28,0,12.57,0,18.85-0.01c0.25,0,0.38,0.08,0.5,0.3c4.72,8.41,9.45,16.82,14.16,25.24c0.24,0.44,0.5,0.64,1,0.47
			c0-8.64,0-17.3,0-25.98c4.86,0,9.72,0,14.59,0c0,17.07,0,34.12,0,51.21c-0.13,0-0.25,0-0.37,0c-5.37,0-10.75,0-16.12,0.01
			c-0.24,0-0.38-0.06-0.5-0.29c-5.62-10.06-11.24-20.11-16.87-30.17c-0.27-0.49-0.27-0.49-0.93-0.4
			C-247.11,77.1-247.11,87.37-247.11,97.67z"/>
		<path class="st1" d="M-182.36,83.05c0,4.65,0,9.24,0,13.86c-4.89,0-9.75,0-14.63,0c0-16.81,0-33.61,0-50.45
			c0.12-0.01,0.24-0.02,0.36-0.02c8.97,0,17.94,0,26.91,0c3.06,0,5.99,0.56,8.72,1.99c4.08,2.13,6.84,5.42,8.39,9.73
			c0.89,2.47,1.16,5.01,0.91,7.62c-0.34,3.53-1.42,6.82-3.4,9.78c-2.55,3.81-6.06,6.2-10.58,7.11c-1.37,0.27-2.75,0.37-4.14,0.37
			c-4.02,0.01-8.04,0-12.05,0C-182.02,83.05-182.17,83.05-182.36,83.05z M-182.35,69.85c0.13,0.01,0.23,0.02,0.33,0.02
			c3.39,0,6.78,0.01,10.18,0c0.95,0,1.89-0.09,2.79-0.38c1.34-0.43,2.42-1.19,3.05-2.49c0.52-1.06,0.56-2.19,0.39-3.34
			c-0.21-1.41-0.84-2.56-2.15-3.25c-1.04-0.55-2.17-0.75-3.33-0.76c-3.67-0.02-7.33-0.02-11-0.02c-0.09,0-0.17,0.02-0.28,0.03
			C-182.35,63.06-182.35,66.43-182.35,69.85z"/>
	</g>
</g>
<g id="za7vtm.tif_2_">
	<g>
		<path class="st3" d="M64.94,97.67c-4.88,0-9.73,0-14.64,0c0-17.07,0-34.12,0-51.2c0.1-0.01,0.21-0.02,0.32-0.02
			c6.28,0,12.57,0,18.85-0.01c0.25,0,0.38,0.08,0.5,0.3c4.72,8.41,9.45,16.82,14.16,25.24c0.24,0.44,0.5,0.64,1,0.47
			c0-8.64,0-17.3,0-25.98c4.86,0,9.72,0,14.59,0c0,17.07,0,34.12,0,51.21c-0.13,0-0.25,0-0.37,0c-5.37,0-10.75,0-16.12,0.01
			c-0.24,0-0.38-0.06-0.5-0.29c-5.62-10.06-11.24-20.11-16.87-30.17c-0.27-0.49-0.27-0.49-0.93-0.4
			C64.94,77.1,64.94,87.37,64.94,97.67z"/>
		<path class="st3" d="M129.69,83.05c0,4.65,0,9.24,0,13.86c-4.89,0-9.75,0-14.63,0c0-16.81,0-33.61,0-50.45
			c0.12-0.01,0.24-0.02,0.36-0.02c8.97,0,17.94,0,26.91,0c3.06,0,5.99,0.56,8.72,1.99c4.08,2.13,6.84,5.42,8.39,9.73
			c0.89,2.47,1.16,5.01,0.91,7.62c-0.34,3.53-1.42,6.82-3.4,9.78c-2.55,3.81-6.06,6.2-10.58,7.11c-1.37,0.27-2.75,0.37-4.14,0.37
			c-4.02,0.01-8.04,0-12.05,0C130.03,83.05,129.88,83.05,129.69,83.05z M129.7,69.85c0.13,0.01,0.23,0.02,0.33,0.02
			c3.39,0,6.78,0.01,10.18,0c0.95,0,1.89-0.09,2.79-0.38c1.34-0.43,2.42-1.19,3.05-2.49c0.52-1.06,0.56-2.19,0.39-3.34
			c-0.21-1.41-0.84-2.56-2.15-3.25c-1.04-0.55-2.17-0.75-3.33-0.76c-3.67-0.02-7.33-0.02-11-0.02c-0.09,0-0.17,0.02-0.28,0.03
			C129.7,63.06,129.7,66.43,129.7,69.85z"/>
	</g>
</g>
<text transform="matrix(1 0 0 1 -261.1388 253.7496)" class="st0" style="font-family:'Times-Roman'; font-size:10px;">www.niamhphillips.co.uk</text>
<text transform="matrix(1 0 0 1 -254.7668 377.4312)" class="st0" style="font-family:'Times-Roman'; font-size:10px;">npceramics@gmail.com</text>
</svg>
